<?xml version="1.0" encoding="UTF-8"?>
<svg id="a" data-name="OBJECTS" xmlns="http://www.w3.org/2000/svg" xmlns:xlink="http://www.w3.org/1999/xlink" viewBox="0 0 500 500">
  <defs>
    <style>
      .c {
        fill: #edd1c3;
      }

      .c, .d, .e, .f, .g, .h, .i, .j, .k, .l, .m, .n, .o, .p {
        stroke-width: 0px;
      }

      .d {
        fill: #1c0000;
      }

      .e {
        fill: #d83535;
      }

      .f {
        fill: #5cbac6;
      }

      .g {
        fill: #eded51;
      }

      .h {
        fill: none;
      }

      .q {
        clip-path: url(#b);
      }

      .i {
        fill: #fff;
      }

      .j {
        fill: #eaad9b;
      }

      .k {
        fill: #d8936c;
      }

      .l {
        fill: #4f250e;
      }

      .m {
        fill: #3b3d44;
      }

      .n {
        fill: #b56f48;
      }

      .o {
        fill: #ba654a;
      }

      .p {
        fill: #86c95b;
      }
    </style>
    <clipPath id="b">
      <rect class="h" width="500" height="500"/>
    </clipPath>
  </defs>
  <g class="q">
    <rect class="j" width="500" height="500"/>
    <path class="d" d="M389.39,246.76c15.07,18.72,34.68,34.55,57.77,41.2,16.35,4.71,33.63,4.64,50.64,4.54-3.96,3.7-10.35,3.18-14.94,6.07-2.34,1.48-4.05,3.74-5.71,5.96l-11.03,14.74c-.59.79-1.23,1.61-2.16,1.94-.97.35-2.04.07-3.03-.21-17.3-4.82-34.87-9.76-50.14-19.22-8.98-5.57-16.96-12.58-24.89-19.56-4.22-3.71-8.47-7.46-11.79-12-2.49-3.41-4.41-7.19-6.52-10.85-2.02-3.51-4.22-6.93-5.76-10.67-1.97-4.81-2.77-10-3.56-15.13-1.23-8.03-2.46-16.06-3.69-24.09-.46-3.02-4.82-19.18-.98-19.9,3.05-.57,8.61,14.1,10.05,16.82,3.51,6.63,7.17,13.17,11.12,19.55,4.47,7.21,9.29,14.2,14.61,20.81Z"/>
    <path class="n" d="M310.64,376.82c-4.94,3.02-13.66,1.22-18.98.6-10.1-1.19-20.11-3.19-30.02-5.44-8.69-1.97-17.4-4.12-25.89-6.87-9.15-2.96-18.19-5.36-24.42-13.37-2.39-3.07-4.23-6.59-5.34-10.33-.83-2.76-1.29-5.73-.56-8.52,1.46-5.65,7.85-9.18,13.64-8.4,4.86.66,9.03,3.74,12.74,6.96,3.73,3.23,7.29,6.73,11.01,9.99,14.52-4.48,36.71-8.63,39.11-10.22,3.38-2.26,9.57-48.98,9.57-48.98,0,0,36.03,6.75,37.72,6.75s-8.44,81.64-18.58,87.83Z"/>
    <path class="k" d="M430.12,213.79c-2.72-8.94-10.21-14.6-21.21-19.01-11.14-5.46-20.77-16.79-27.59-28.91-2.52-4.43-4.64-8.98-6.33-13.39-.61-1.57-1.15-3.13-1.64-4.65.84-1.48,1.58-3.01,2.22-4.6.16-.4.32-.81.47-1.23-1.21.57-2.4.86-3.48.79-4-.27-7.99-5.33-3.2-17.31,0,0,2.14-4.02,5.72-5.59-1.77,1.13-6.47-12.84-8.61-19.58-.57-1.76-2.65-2.5-4.2-1.48l-1.46.96c-1.06.69-2.45.59-3.39-.25-3.29-2.95-11.02-9.38-15.94-9.46-6.38-.11-23.78-2.97-31.48.88-7.71,3.85-9.16,7.45-9.32,8.98,0,.02-.08,1.18-.17,2.47-.02.25-.07.48-.15.7-1.5,17.5-.98,55.47,8.48,63.91,5.21,4.65,12.81,6.62,21.08,6.29l.24-.02c11.75-.54,24.84-5.73,34.39-14.5-.12.29-.25.59-.39.9-1.79,3.97-5.12,9.61-10.95,14.43-5.36,4.44-13.24,6.29-19.55,7.04-1.52.18-2.94.29-4.22.37.06,1.95.31,3.26.64,4.25l-.88.43c-14.77,7.61-30.82,11.63-36.99,28.49-1.9,4.95-2.76,10.22-3.58,15.44-2.28,15.61-5.3,31.72-1.97,47.42,3.03,14.62,9.71,28.25,12.53,42.94,2.58,13.24,1.07,26.91,1.65,40.3.11,3.46.37,6.67.79,9.65.89.66,1.94,1.32,3.15,1.95,16.52,8.7,61.1,14.24,82.81,9.14,4.77-1.26,9.74-2.34,13.95-4.89,1.27-.76,4.12-3.06,6.76-5.11,1.94-1.51,3.77-2.88,4.75-3.41v.02c1.11-9.35,2.69-18.64,4.73-27.84,2.08-9.56,4.36-19.14,4.98-28.93.9-13.41-2.39-27.06.77-40.28,2.8-11.89,8.89-22.63,10.81-34.82,1.65-9.74.05-16.92-4.22-22.49ZM343.27,124.95c-1.76,0-3.19-1.91-3.19-4.26s1.43-4.26,3.19-4.26,3.2,1.9,3.2,4.26-1.43,4.26-3.2,4.26ZM341.21,101.34c4.93-1.1,9.23.53,9.94,2.66.71,2.13-1.42,4.08-4.09,3.2-2.66-.89-5.32,1.59-7.45.71-2.13-.89-3.19-5.51,1.6-6.57ZM308.84,102.58c.71-2.13,5.01-3.76,9.94-2.66,4.79,1.06,3.73,5.68,1.6,6.57-2.13.88-4.8-1.6-7.46-.71-2.66.88-4.79-1.07-4.08-3.2ZM314.79,123.88c-1.77,0-3.2-1.9-3.2-4.26s1.43-4.26,3.2-4.26,3.19,1.91,3.19,4.26-1.43,4.26-3.19,4.26ZM326.06,153.89c-3.2.35-8.52-1.07-6.39-2.85,0,0,15.62-2.84,17.04-.71,1.41,2.13-7.46,3.2-10.65,3.56Z"/>
    <path class="k" d="M364.55,158.79c-.12.29-.25.59-.39.9-1.79,3.97-5.12,9.61-10.95,14.43-5.36,4.44-13.24,6.29-19.55,7.04-1.52.18-2.94.29-4.22.37,0-.28-.01-.58-.01-.89v-.06c0-1.58.11-3.53.37-5.95.01-.13.02-.25.04-.38.09-.33.2-.65.32-.96,11.75-.54,24.84-5.73,34.39-14.5Z"/>
    <path class="k" d="M408.3,371.54c-.11,1.25-.2,2.49-.28,3.74-.4,5.05-.77,10.43-2.48,15.22-3.71,11.95-16.95,14.14-27.88,14.54-6.42.4-12.71.48-19.18.57-23.69,1.1-40.89-1.95-50.08-15.63-3.35-4.99-5.63-11.4-6.77-19.53.89.66,1.94,1.32,3.15,1.95,16.52,8.7,61.1,14.24,82.81,9.14,4.77-1.26,9.74-2.34,13.95-4.89,1.27-.76,4.12-3.06,6.76-5.11Z"/>
    <path class="k" d="M364.16,159.69c-1.79,3.97-5.12,9.61-10.95,14.43-5.36,4.44-13.24,6.29-19.55,7.04,1.74-5.64,6.59-8.29,11.65-10.37,3.53-1.52,7.78-3.42,11.1-5.32,3.11-1.7,5.29-3.78,7.75-5.78Z"/>
    <path class="k" d="M413.06,368.15c-.58,4.77-1.02,9.56-1.33,14.35-.39,5.05-.77,10.43-2.47,15.22-3.71,11.95-16.96,14.14-27.88,14.55-6.42.39-12.71.48-19.19.56-27.4,1.27-46.11-3-53.79-22.85-1.88-4.87-3.1-10.68-3.62-17.58,16.52,8.7,61.1,14.24,82.81,9.14,4.77-1.26,9.74-2.34,13.95-4.89,1.27-.76,4.12-3.06,6.76-5.11,1.94-1.51,3.77-2.88,4.75-3.41v.02Z"/>
    <path class="n" d="M364.55,158.79c-.12.29-.25.59-.39.9-1.79,3.97-5.12,9.61-10.95,14.43-5.36,4.44-13.24,6.29-19.55,7.04-1.52.18-2.94.29-4.22.37h-.04c.01-.3.02-.59.03-.89v-.06c.09-2.09.23-4.13.37-5.95.01-.13.02-.25.04-.38.02-.32.05-.63.08-.94l.24-.02c11.75-.54,24.84-5.73,34.39-14.5Z"/>
    <path class="k" d="M300.36,103.11c.1-1.15.21-2.21.32-3.17,0,.02-.08,1.18-.17,2.47-.02.25-.07.48-.15.7Z"/>
    <path class="k" d="M317.98,119.62c0,2.36-1.43,4.26-3.19,4.26s-3.2-1.9-3.2-4.26,1.43-4.26,3.2-4.26,3.19,1.91,3.19,4.26Z"/>
    <path class="k" d="M312.92,105.78c-2.66.88-4.79-1.07-4.08-3.2.71-2.13,5.01-3.76,9.94-2.66,4.79,1.06,3.73,5.68,1.6,6.57-2.13.88-4.8-1.6-7.46-.71Z"/>
    <path class="k" d="M336.71,150.33c1.41,2.13-7.46,3.2-10.65,3.56-3.2.35-8.52-1.07-6.39-2.85,0,0,15.62-2.84,17.04-.71Z"/>
    <path class="k" d="M346.47,120.69c0,2.35-1.43,4.26-3.2,4.26s-3.19-1.91-3.19-4.26,1.43-4.26,3.19-4.26,3.2,1.9,3.2,4.26Z"/>
    <path class="k" d="M351.15,104c.71,2.13-1.42,4.08-4.09,3.2-2.66-.89-5.32,1.59-7.45.71-2.13-.89-3.19-5.51,1.6-6.57,4.93-1.1,9.23.53,9.94,2.66Z"/>
    <path class="k" d="M380.83,115.92v.1c-.02,1.27-.07,2.55-.16,3.82-.1,1.65-.26,3.3-.47,4.93-.76,6.14-2.19,12.07-4.15,17.23h0c-1.21.57-2.4.86-3.48.79-4-.27-7.99-5.33-3.2-17.31,0,0,2.14-4.02,5.72-5.59-1.77,1.13-6.47-12.84-8.61-19.58-.57-1.76-2.65-2.5-4.2-1.48l-1.46.96c-1.06.69-2.45.59-3.39-.25-3.29-2.95-11.02-9.38-15.94-9.46-6.38-.11-23.78-2.97-31.48.88-7.71,3.85-9.16,7.45-9.32,8.98.18-1.55.39-2.84.6-3.79,4.84-21.71,27.06-29.99,57.44-21.23,16.31,4.71,22.39,22.75,22.11,41Z"/>
    <path class="l" d="M323.63,117.6s-1.05,3.16-2.11,7.11c-1.05,3.95-2.11,8.68-2.11,11.93,0,1.18.13,2.18.53,2.93.54,1.02,1.36,1.73,2.3,2.18.94.45,1.99.63,3.04.63,1.24,0,2.48-.26,3.56-.69,1.08-.43,2-1.03,2.59-1.78.17-.22.13-.53-.09-.7-.22-.17-.53-.13-.7.09-.42.55-1.21,1.09-2.17,1.47-.96.38-2.09.62-3.19.62-.93,0-1.84-.17-2.61-.54-.77-.37-1.41-.93-1.85-1.74-.26-.48-.41-1.36-.41-2.46,0-3.04,1.03-7.76,2.08-11.67.52-1.96,1.04-3.72,1.44-5,.2-.64.36-1.15.47-1.51.11-.35.18-.55.18-.55.09-.26-.05-.55-.32-.63-.26-.09-.55.05-.63.32h0Z"/>
    <path class="d" d="M317.98,119.62c0,2.36-1.43,4.26-3.19,4.26s-3.2-1.9-3.2-4.26,1.43-4.26,3.2-4.26,3.19,1.91,3.19,4.26Z"/>
    <path class="d" d="M346.47,120.69c0,2.35-1.43,4.26-3.2,4.26s-3.19-1.91-3.19-4.26,1.43-4.26,3.19-4.26,3.2,1.9,3.2,4.26Z"/>
    <path class="k" d="M384,133.47c-1.36,3.49-4.69,6.99-7.95,8.53h0c-1.21.57-2.4.86-3.48.79-4-.27-7.99-5.33-3.2-17.31,0,0,2.14-4.02,5.72-5.59,1.59-.7,3.48-.91,5.59-.05l.14.05c6.05,2.56,5.06,8.79,3.19,13.58Z"/>
    <path class="n" d="M370.7,135.33s6.66,2.93,8.25-6.39c1.06-5.06-3.19-5.06-3.19-5.06,0,0-5.32,3.99-5.06,11.45Z"/>
    <path class="d" d="M320.38,106.49c-2.13.88-4.8-1.6-7.46-.71-2.66.88-4.79-1.07-4.08-3.2.71-2.13,5.01-3.76,9.94-2.66,4.79,1.06,3.73,5.68,1.6,6.57Z"/>
    <path class="d" d="M347.06,107.2c-2.66-.89-5.32,1.59-7.45.71-2.13-.89-3.19-5.51,1.6-6.57,4.93-1.1,9.23.53,9.94,2.66.71,2.13-1.42,4.08-4.09,3.2Z"/>
    <path class="i" d="M326.06,153.89c-3.2.35-8.52-1.07-6.39-2.85,0,0,15.62-2.84,17.04-.71,1.41,2.13-7.46,3.2-10.65,3.56Z"/>
    <path class="l" d="M372.1,136.83c-.62-.56-.98-1.69-.97-3.1,0-1.64.47-3.61,1.32-5.35.85-1.75,2.08-3.26,3.54-4.05.61-.33,1.13-.45,1.58-.45.58,0,1.07.2,1.52.53.67.48,1.2,1.26,1.54,1.93.17.33.3.63.39.84.04.11.07.19.09.25l.02.06v.02c.09.26.37.41.63.33.26-.08.41-.36.33-.63,0-.03-.33-1.05-1.03-2.12-.35-.53-.8-1.07-1.38-1.49-.57-.42-1.29-.72-2.11-.72-.64,0-1.33.18-2.06.58-1.72.94-3.05,2.61-3.96,4.49-.92,1.88-1.42,3.97-1.42,5.79,0,1.56.36,2.96,1.29,3.84.2.19.52.18.71-.03.19-.2.18-.52-.02-.71h0Z"/>
    <path class="l" d="M372.08,128.55h.02c.05,0,.2-.02.4-.02.55,0,1.54.09,2.39.54.84.46,1.58,1.22,1.78,2.77.03.27.28.47.56.43.27-.03.47-.28.43-.56-.22-1.85-1.22-2.97-2.3-3.53-1.08-.57-2.21-.65-2.86-.65-.32,0-.53.02-.54.02-.27.03-.47.28-.44.55.03.27.28.47.55.44h0Z"/>
    <path class="d" d="M380.84,115.36c-.01.19-.01.38-.01.56v.1c-.01.15-.02.29-.02.43-.03,1.57-1.32,2.86-2.89,2.79-.94-.05-1.96.09-2.84.65-1.77,1.13-6.47-12.84-8.61-19.58-.57-1.76-2.65-2.5-4.2-1.48l-1.46.96c-1.06.69-2.45.59-3.39-.25-3.29-2.95-11.02-9.38-15.94-9.46-6.38-.11-23.78-2.97-31.48.88-7.71,3.85-9.16,7.45-9.32,8.98,0,.02-.08,1.18-.17,2.47-.02.25-.07.48-.15.7-.51,1.5-2.22,2.33-3.76,1.66l-.04-.02c-2.96-1.3-11.51-4.21-10.7-7.13.85-3.09,4.51-1.79,7.04-2.31,1.05-.21,1.87-1.03,2.13-2.06l4.45-18.25c.8-3.61,2.67-7.11,6.88-9.8,4.57-2.93,11.97-3.54,16.87-4.1,13.33-1.52,33.05,1.66,40.05,4.43,8.92,3.52,14.61,15.19,15.84,22.02,1.22,6.82,1.82,24.59,1.72,27.81Z"/>
    <path class="d" d="M445.3,503.03c1.33,11.93-100.53,5.35-134.53,4.99-2.55,0-5.87-.33-7.2-2.37-4.08-43.16-6.46-111.83-1.94-135.2.89.66,1.94,1.32,3.15,1.95,16.52,8.7,61.1,14.24,82.81,9.14,4.77-1.26,9.74-2.34,13.95-4.89,1.27-.76,4.12-3.06,6.76-5.11,1.94-1.51,3.77-2.88,4.75-3.41v.02c10.37,22.64,15.98,29.68,21.93,53.97,3.36,15.94,8.82,64.65,10.32,80.91Z"/>
    <polygon class="c" points="-26.23 510.15 -40.76 368.13 75.49 321.37 374.9 371.71 367.17 513.74 -26.23 510.15"/>
    <polygon class="o" points="222.23 454.95 374.9 371.71 367.17 513.74 222.23 517.04 222.23 454.95"/>
    <path class="m" d="M246.82,304.97c1.28-4.97.55-6.54-1.63-9.83-2.18-3.29-5.15-7.43-8.91-4.99s.51,5.7-7.37,6.56c-7.89.87-4.83-4.25-5.41-6.4-.58-2.15-1.6-3.61-3.96-4.38-2.37-.77-5.75.53-7.56-.91s-.7-7.38.72-9.24c1.42-1.86,4.98.28,7.51.55,2.53.27,5.81-1.38,5.23-3.86-.25-1.08-1.19-1.85-2.1-2.49-3.21-2.26-6.78-3.96-10.32-5.65-2.98-1.42-6.19-2.88-9.46-2.43-3.84.53-6.84,3.56-9.12,6.69-2.18,2.99-4.06,6.43-4.1,10.13-.03,2.7.91,5.32,2.17,7.7,4.56,8.71,12.92,14.66,20.98,20.29,5.31,3.71,10.81,7.49,17.13,8.88,6.33,1.39,10.67-.36,12.12-2.88,1.44-2.52,2.81-2.79,4.09-7.76Z"/>
    <path class="n" d="M413.79,344.14c-24.18,17.71-107.35-15.94-107.35-15.94,0,0-13.23-.94-19.82-1.76-6.6-.8-13.67.46-20.26,5.29-6.59,4.83-20.67,1.74-26.53-.66-5.85-2.42-10.16-8.4-8.71-18.03-.1,6.49,4.54,7.86,9.76,9.82,5.87,2.2,19.05,3.67,25.65-.73,6.59-4.4,8.79-5.86,15.38-5.13,6.6.73,21.25,2.93,21.25,2.93,0,0,86.45,26.38,110.63,10.26,13.61-9.08,18.86-36.04,20.85-57.87.14,15.84-1.42,57.59-20.85,71.82Z"/>
    <path class="k" d="M434.64,272.32c-1.99,21.83-7.24,48.79-20.85,57.87-24.18,16.12-110.63-10.26-110.63-10.26,0,0-14.65-2.2-21.25-2.93-6.59-.73-8.79.73-15.38,5.13-6.6,4.4-19.78,2.93-25.65.73-5.22-1.96-9.86-3.33-9.76-9.82v-.03c0-.79.08-1.65.24-2.6,5.13-16.85,30.04-30.04,38.1-30.04s41.03,17.58,41.03,17.58c0,0,73.99-8.06,76.92-10.25,2.93-2.2,1.47-43.23,1.47-43.23l45.77-19.87s1.54,30.78,0,47.72Z"/>
    <path class="d" d="M359.32,267.28c9.05,10.96,19.9,20.27,30.7,29.52-2.54,2.57-6.7,2.26-10.28,1.77-8.4-1.15-16.8-2.31-25.2-3.46-2.35,7.49-1.26,15.7,1.28,23.13s6.46,14.3,9.92,21.35c5.05,10.3,9.13,21.06,12.18,32.11-16.38-3.08-32.96-5.05-49.6-5.9.27-12.36,2.09-24.65,2.12-37.01.03-12.24-3.27-21.52-5.74-34.45,10.21,0,14.93.07,19.51.03l-13.38-14.03c-5.12-5.37-10.26-10.76-14.6-16.78-12.09-16.8-17.36-38.37-14.36-58.85.35-2.39.82-4.81,1.88-6.98,2.14-4.39,6.51-7.35,11.15-8.88,3.73-1.23,12.54-8.04,15.06-3.49,1.27,2.29,1.13,10.83,1.36,13.43.3,3.35.73,6.68,1.3,9.99,2.34,13.59,6.92,26.8,13.5,38.92,3.76,6.92,8.18,13.49,13.2,19.57Z"/>
    <path class="e" d="M204.8,266.7c0,1-.81,1.82-1.82,1.82s-1.82-.81-1.82-1.82.81-1.82,1.82-1.82,1.82.81,1.82,1.82Z"/>
    <path class="p" d="M209.79,266.94c0,1-.81,1.82-1.82,1.82s-1.82-.81-1.82-1.82.81-1.82,1.82-1.82,1.82.81,1.82,1.82Z"/>
    <path class="f" d="M208.14,271.49c0,1-.81,1.82-1.82,1.82s-1.82-.81-1.82-1.82.81-1.82,1.82-1.82,1.82.81,1.82,1.82Z"/>
    <path class="g" d="M203.02,271.32c0,1-.81,1.82-1.82,1.82s-1.82-.81-1.82-1.82.81-1.82,1.82-1.82,1.82.81,1.82,1.82Z"/>
  </g>
</svg>