<?xml version="1.0" encoding="UTF-8"?>
<svg id="a" data-name="Layer 1" xmlns="http://www.w3.org/2000/svg" viewBox="0 0 135.6 135.59">
  <defs>
    <style>
      .b {
        fill: #d7936b;
      }

      .b, .c, .d, .e, .f, .g, .h {
        stroke-width: 0px;
      }

      .c {
        fill: #b66f48;
      }

      .d {
        fill: #1f2834;
      }

      .e {
        fill: none;
      }

      .f {
        fill: #fff;
      }

      .g {
        fill: #1f0d0e;
      }

      .h {
        fill: #4e2713;
      }
    </style>
  </defs>
  <rect class="d" width="135.6" height="135.59"/>
  <path class="b" d="M104.98,53.36c-.08-.22-.13-.45-.15-.7-.09-1.29-.17-2.45-.17-2.47-.01-.06-.01-.12-.03-.18,0-.04-.01-.09-.02-.13-.01-.02-.01-.05-.02-.08-.01-.02-.01-.04-.02-.07-.01-.07-.03-.14-.05-.21,0-.03,0-.05-.02-.08,0-.04-.01-.08-.03-.11h-.01c-.02-.07-.04-.14-.06-.21-.06-.14-.11-.28-.18-.44-.03-.08-.07-.15-.11-.23-.05-.1-.1-.2-.16-.31-.03-.06-.07-.12-.1-.19h-.01s-.04-.08-.07-.13c-.03-.04-.06-.09-.08-.13h-.01s-.03-.06-.05-.09c-.09-.15-.2-.3-.32-.46-.07-.09-.14-.18-.21-.28h-.01s-.04-.05-.05-.07c-.06-.07-.12-.15-.18-.22h-.01s-.07-.1-.12-.15c-.04-.05-.08-.1-.13-.15h-.01s-.03-.03-.04-.05c0,0-.01-.02-.03-.03-.06-.07-.13-.15-.2-.22h-.01c-.1-.1-.2-.21-.3-.31-.1-.09-.19-.19-.29-.28-.01-.02-.02-.03-.04-.04-.15-.15-.3-.28-.47-.42l-.18-.15s-.06-.06-.09-.08c-.21-.18-.43-.36-.67-.54-.06-.04-.11-.09-.17-.13-.04-.03-.09-.06-.13-.1-.26-.19-.53-.39-.82-.58-.03-.02-.05-.04-.08-.06-.08-.04-.15-.09-.23-.14-.12-.09-.25-.17-.39-.25-.12-.08-.25-.16-.39-.25-.19-.12-.38-.24-.59-.35,0,0,0-.01-.01-.01-.2-.12-.4-.23-.61-.35h-.01c-.21-.12-.43-.24-.65-.36-.22-.12-.45-.24-.69-.36-7.57-3.85-24.68-.99-30.95-.88-.42.01-.85.06-1.31.16-.15.03-.31.07-.46.11-.08.02-.16.04-.24.06-.14.04-.29.09-.43.14h-.01c-.17.05-.34.12-.52.18-.8.3-1.64.7-2.48,1.16-.15.08-.3.16-.45.25-.3.17-.59.34-.89.52,0,.01-.01.01-.01.01-.18.11-.36.22-.54.34-.92.59-1.84,1.23-2.72,1.87-.06.06-.13.1-.19.15-.28.21-.56.43-.84.63-.17.14-.33.27-.49.4h-.01c-.06.05-.12.1-.18.15-.27.21-.52.42-.77.62-.05.04-.1.08-.14.12-.11.08-.21.17-.32.26-.07.06-.13.11-.2.17-.08.07-.16.13-.24.2-.02.01-.03.02-.04.03-.07.07-.14.13-.21.18-.06.06-.12.11-.18.15h-.01l-.12.12c-.09.08-.18.16-.27.23-.13.12-.26.23-.39.34-.37.33-.71.64-1.01.91-.93.84-2.29.94-3.33.25l-1.44-.96h-.01c-.09-.07-.19-.13-.29-.17-.02,0-.04-.02-.06-.04-.15-.07-.31-.12-.47-.16-.09-.03-.19-.05-.28-.06-.01,0-.01-.01-.02,0-.01-.01-.02-.01-.03,0,0-.01-.03-.01-.04-.01-.23-.04-.45-.04-.67.01-.02-.01-.04,0-.06,0s-.05,0-.07.02c-.1.01-.2.04-.3.07-.09.03-.2.06-.29.11,0,0-.02,0-.03.01-.02.01-.04.02-.06.02-.02.01-.04.02-.06.03t-.02.01s-.03.02-.05.03c-.09.05-.18.11-.27.17t-.02.02s-.06.04-.09.07c-.04.02-.08.05-.11.09-.04.03-.09.07-.13.11-.08.08-.15.16-.22.25-.01.01-.02.03-.03.04-.06.07-.11.14-.15.22-.02.02-.03.05-.04.07-.03.03-.05.06-.06.09-.01.02-.01.03-.02.05-.02.02-.03.05-.04.08,0,0-.02,0-.01.02-.05.11-.09.22-.13.33-.08.24-.16.5-.24.76-.04.13-.08.26-.13.4-.05.13-.09.27-.13.42-.02.07-.04.14-.06.21-.07.21-.14.43-.21.64-.05.16-.1.31-.16.47-.05.18-.11.37-.17.55h-.01s-.03.09-.04.14c-.23.72-.47,1.46-.73,2.21-.07.21-.14.43-.22.64-.01.06-.03.12-.05.17h0c-.04.13-.08.27-.13.41-.05.13-.09.27-.14.41-.1.27-.19.54-.29.81-.03.06-.05.12-.06.18-.02.06-.04.12-.06.17-.16.43-.31.86-.46,1.28-.1.27-.19.54-.29.81h0c-.05.14-.1.28-.15.42-.05.13-.1.25-.14.37-.1.26-.19.52-.29.78h-.01s-.02.05-.02.07c-.08.23-.17.46-.26.69h-.01s-.01.03-.01.04c-.09.24-.18.48-.28.7-.24.62-.49,1.2-.73,1.74-.03.07-.06.14-.1.21-.01.03-.02.05-.03.08h-.01c-.07.16-.14.31-.2.45-.08.2-.17.38-.26.55-.06.11-.11.22-.15.31-.07.14-.14.27-.2.39h-.01c-.05.09-.09.17-.13.25-.03.06-.06.12-.1.18-.05.08-.09.16-.13.23-.05.08-.1.17-.14.24h0s-.04.07-.06.1c-.06.1-.12.19-.18.27h0s-.01.02-.02.03c0,0,.01.02-.01.02,0,0,.01.01-.01.01,0,.03-.02.05-.05.07,0,.01,0,.02-.01.03-.04.06-.08.11-.12.15h-.01s-.02.02-.02.03c-.06.09-.13.17-.2.22-.01.03-.02.04-.04.04,0,.01,0,.02-.02.02-.04.05-.08.08-.12.11-.01,0-.01.01-.02.01,0,0-.01.01-.02.01-.06.05-.12.08-.18.1h-.01s0,.01-.01.01c-.06.02-.1.03-.15.03h-.04s-.04,0-.06-.01c.18.09.35.18.51.27.35.19.67.4.98.63.16.12.33.25.48.37.23.18.44.37.65.56.69.65,1.27,1.34,1.72,1.94.12.15.22.28.3.41.04.07.09.13.13.19.23.32.4.6.52.81.04.07.07.13.1.18.04.06.06.1.08.13.01.03.02.05.02.05h0c.38.97.71,1.9.98,2.79.14.44.26.87.37,1.29.22.84.4,1.64.52,2.39.07.46.13.89.17,1.3.04.29.06.57.07.84.05.73.04,1.41-.01,2.04-.01.21-.03.42-.07.61.01.04,0,.07-.01.1.01,0,.01.02,0,.03h0c-.03.29-.08.56-.14.82-.04.26-.11.51-.19.74-.08.24-.16.47-.24.69-.17.44-.37.83-.61,1.18-.1.18-.22.34-.35.5-.36.46-.76.83-1.19,1.12-.14.1-.28.19-.43.27-.07.04-.13.07-.2.1-.12.07-.25.13-.38.17-.1.04-.21.08-.31.11-.03.02-.07.03-.1.03-.09.03-.18.05-.27.07-.25.07-.51.1-.76.12-.95.06-1.98-.16-3.03-.61-.13-.06-.26-.12-.39-.18h0c.15.43.31.83.47,1.23.62,1.59,1.35,3.12,2.18,4.6-.48,1.52-1.01,3.08-1.61,4.65-1.67,4.41-3.75,8.96-6.23,13.39-3.93,7.1-8.8,13.93-14.38,19.47h64.9c.25-.94.44-2.14.49-3.81-1.26-.08-2.66-.19-4.15-.37-6.21-.75-13.95-2.6-19.22-7.04-5.73-4.82-9.01-10.46-10.77-14.43-.13-.31-.26-.61-.38-.9,9.39,8.77,22.26,13.96,33.81,14.5l.23.02c8.13.33,15.61-1.64,20.73-6.29,9.3-8.44,9.81-46.41,8.34-63.91ZM62.79,75.2c-.43,0-.85-.12-1.23-.34-.19-.1-.37-.23-.53-.39-.11-.1-.22-.21-.31-.33-.12-.14-.23-.29-.33-.45-.26-.41-.47-.9-.59-1.42-.02-.09-.04-.18-.06-.27-.03-.17-.06-.34-.07-.52-.02-.18-.03-.36-.03-.54,0-2.36,1.42-4.26,3.15-4.26s3.14,1.91,3.14,4.26-1.4,4.26-3.14,4.26ZM66.39,58.16c-2.1.88-4.71-1.6-7.33-.71-2.62.88-4.71-1.07-4.02-3.2.7-2.13,4.93-3.76,9.78-2.66,4.7,1.06,3.66,5.68,1.57,6.57ZM79.71,104.14c-3.14-.36-11.86-1.43-10.47-3.56,1.4-2.13,16.75.71,16.75.71,2.1,1.78-3.13,3.2-6.28,2.85ZM90.79,74.13c-.12,0-.24-.01-.35-.03-.26-.03-.5-.12-.74-.24-.09-.04-.18-.09-.27-.15-.09-.07-.19-.14-.28-.22-.12-.09-.23-.19-.34-.32-.03-.03-.05-.05-.07-.08-.1-.11-.19-.23-.27-.36-.28-.4-.49-.89-.63-1.42-.04-.13-.07-.25-.09-.38-.03-.17-.06-.34-.07-.52-.02-.18-.03-.36-.03-.54,0-2.35,1.4-4.26,3.14-4.26s3.14,1.9,3.14,4.26-1.41,4.26-3.14,4.26ZM92.63,56.03c-2.62-.89-5.24,1.59-7.34.71-2.09-.89-3.13-5.51,1.58-6.57,4.84-1.1,9.07.53,9.77,2.66.7,2.13-1.4,4.08-4.01,3.2Z"/>
  <path class="b" d="M41.87,109.04c.12.29.25.59.38.9,1.76,3.97,5.03,9.61,10.77,14.43,5.27,4.44,13.02,6.29,19.22,7.04,1.49.18,2.89.29,4.15.37,0-.28,0-.58,0-.89v-.06c0-1.58-.11-3.53-.36-5.95,0-.13-.02-.25-.04-.38-.09-.33-.2-.65-.31-.96-11.55-.54-24.42-5.73-33.81-14.5h0Z"/>
  <path class="b" d="M42.25,109.94c1.76,3.97,5.03,9.61,10.77,14.43,5.27,4.44,13.02,6.29,19.22,7.04-1.71-5.64-6.48-8.29-11.45-10.37-3.47-1.52-7.65-3.42-10.91-5.32-3.06-1.7-5.2-3.78-7.62-5.78h0Z"/>
  <path class="c" d="M41.87,109.04c.12.29.25.59.38.9,1.76,3.97,5.03,9.61,10.77,14.43,5.27,4.44,13.02,6.29,19.22,7.04,1.49.18,2.89.29,4.15.37h.04c0-.3-.02-.59-.03-.89v-.06c-.09-2.09-.23-4.13-.36-5.95,0-.13-.02-.25-.04-.38-.02-.32-.05-.63-.08-.94l-.24-.02c-11.55-.54-24.42-5.73-33.81-14.5h0Z"/>
  <path class="b" d="M104.98,53.36c-.1-1.15-.21-2.21-.31-3.17,0,.02.08,1.18.17,2.47.02.25.07.48.15.7Z"/>
  <path class="b" d="M87.65,69.87c0,2.36,1.41,4.26,3.14,4.26s3.15-1.9,3.15-4.26-1.41-4.26-3.15-4.26-3.14,1.91-3.14,4.26Z"/>
  <path class="b" d="M92.63,56.03c2.62.88,4.71-1.07,4.01-3.2-.7-2.13-4.93-3.76-9.77-2.66-4.71,1.06-3.67,5.68-1.57,6.57,2.09.88,4.72-1.6,7.33-.71h0Z"/>
  <path class="b" d="M69.24,100.58c-1.39,2.13,7.33,3.2,10.47,3.56,3.15.35,8.38-1.07,6.28-2.85,0,0-15.36-2.84-16.75-.71h0Z"/>
  <path class="b" d="M59.64,70.94c0,2.35,1.41,4.26,3.15,4.26s3.14-1.91,3.14-4.26-1.41-4.26-3.14-4.26-3.15,1.9-3.15,4.26Z"/>
  <path class="b" d="M55.04,54.25c-.7,2.13,1.4,4.08,4.02,3.2,2.62-.89,5.23,1.59,7.32.71,2.09-.89,3.14-5.51-1.57-6.57-4.85-1.1-9.07.53-9.77,2.66Z"/>
  <path class="b" d="M25.86,66.17v.1c.02,1.27.07,2.55.16,3.82.1,1.65.26,3.3.46,4.93.75,6.14,2.15,12.07,4.08,17.23,1.19.57,2.36.86,3.42.79,3.93-.27,7.86-5.33,3.15-17.31,0,0-2.1-4.02-5.62-5.59,1.74,1.13,6.36-12.84,8.46-19.58.56-1.76,2.61-2.5,4.13-1.48l1.44.96c1.04.69,2.41.59,3.33-.25,3.23-2.95,10.83-9.38,15.67-9.46,6.27-.11,23.38-2.97,30.95.88,7.58,3.85,9.01,7.45,9.16,8.98-.18-1.55-.38-2.84-.59-3.79-4.76-21.71-26.6-29.99-56.47-21.23-16.03,4.71-22.01,22.75-21.74,41h0Z"/>
  <path class="h" d="M82.1,67.85s1.03,3.16,2.07,7.11c1.03,3.95,2.07,8.68,2.07,11.93,0,1.18-.13,2.18-.52,2.93-.53,1.02-1.34,1.73-2.26,2.18s-1.96.63-2.99.63c-1.22,0-2.44-.26-3.5-.69-1.06-.43-1.97-1.03-2.54-1.78-.17-.22-.13-.53.09-.7s.52-.13.69.09c.41.54,1.19,1.08,2.13,1.46.94.38,2.05.62,3.14.62.91,0,1.81-.17,2.57-.54s1.39-.93,1.82-1.74c.26-.48.4-1.35.4-2.46,0-3.04-1.02-7.76-2.04-11.67-.51-1.96-1.03-3.72-1.42-5-.2-.64-.35-1.15-.46-1.51-.11-.35-.18-.55-.18-.55-.09-.26.05-.55.31-.63.26-.09.54.05.62.32h0Z"/>
  <path class="g" d="M87.65,69.87c0,2.36,1.41,4.26,3.14,4.26s3.15-1.9,3.15-4.26-1.41-4.26-3.15-4.26-3.14,1.91-3.14,4.26Z"/>
  <path class="g" d="M59.64,70.94c0,2.35,1.41,4.26,3.15,4.26s3.14-1.91,3.14-4.26-1.41-4.26-3.14-4.26-3.15,1.9-3.15,4.26Z"/>
  <path class="b" d="M22.75,83.72c1.34,3.49,4.61,6.99,7.82,8.53,1.19.57,2.36.86,3.42.79,3.93-.27,7.86-5.33,3.15-17.31,0,0-2.1-4.02-5.62-5.59-1.56-.7-3.42-.91-5.5-.05l-.14.05c-5.95,2.56-4.97,8.79-3.14,13.58h0Z"/>
  <path class="c" d="M35.83,85.58s-6.55,2.93-8.11-6.39c-1.04-5.06,3.14-5.06,3.14-5.06,0,0,5.23,3.99,4.97,11.45Z"/>
  <path class="g" d="M85.29,56.74c2.09.88,4.72-1.6,7.33-.71,2.62.88,4.71-1.07,4.01-3.2-.7-2.13-4.93-3.76-9.77-2.66-4.71,1.06-3.67,5.68-1.57,6.57h0Z"/>
  <path class="g" d="M59.06,57.45c2.62-.89,5.23,1.59,7.32.71,2.09-.89,3.14-5.51-1.57-6.57-4.85-1.1-9.07.53-9.77,2.66s1.4,4.08,4.02,3.2Z"/>
  <path class="f" d="M79.71,104.14c3.15.35,8.38-1.07,6.28-2.85,0,0-15.36-2.84-16.75-.71-1.39,2.13,7.33,3.2,10.47,3.56h0Z"/>
  <path class="h" d="M34.46,87.08c.61-.56.96-1.7.95-3.11,0-1.64-.46-3.61-1.3-5.35-.84-1.75-2.04-3.26-3.48-4.05-.6-.33-1.11-.45-1.55-.45-.57,0-1.05.2-1.49.52-.66.48-1.18,1.26-1.51,1.92-.17.33-.29.63-.38.84-.04.11-.07.19-.09.25l-.02.06v.02c-.09.26-.36.41-.62.33s-.4-.36-.32-.63c0-.03.32-1.05,1.01-2.11.34-.53.79-1.07,1.36-1.49.56-.42,1.27-.72,2.07-.72.63,0,1.31.18,2.03.58,1.69.93,3,2.61,3.89,4.49s1.4,3.97,1.4,5.79c0,1.56-.35,2.96-1.27,3.84-.2.19-.51.18-.7-.02s-.18-.52.02-.71h0Z"/>
  <path class="h" d="M34.47,78.81h-.02s-.2-.02-.39-.02c-.54,0-1.51.08-2.35.54-.84.46-1.55,1.22-1.76,2.78-.03.27-.28.47-.55.43-.27-.03-.46-.28-.42-.56.22-1.85,1.21-2.97,2.27-3.53,1.06-.57,2.17-.65,2.81-.65.31,0,.51.02.53.02.27.03.46.28.43.55s-.28.47-.54.44h0Z"/>
  <path class="g" d="M25.85,65.61c0,.19,0,.38,0,.56v.1c0,.15.02.29.02.43.03,1.57,1.3,2.86,2.84,2.79.92-.05,1.93.09,2.79.65,1.74,1.13,6.36-12.84,8.46-19.58.56-1.76,2.61-2.5,4.13-1.48l1.44.96c1.04.69,2.41.59,3.33-.25,3.23-2.95,10.83-9.38,15.67-9.46,6.27-.11,23.38-2.97,30.95.88,7.58,3.85,9.01,7.45,9.16,8.98,0,.02.08,1.18.17,2.47.02.25.07.48.15.7.5,1.5,2.18,2.33,3.7,1.66l.04-.02c2.91-1.3,11.32-4.21,10.52-7.13-.84-3.09-4.43-1.79-6.92-2.31-1.03-.21-1.84-1.03-2.09-2.06l-4.37-18.25c-.79-3.61-2.62-7.11-6.76-9.8-4.49-2.93-11.77-3.54-16.59-4.1-13.1-1.52-32.49,1.66-39.37,4.43-8.77,3.52-14.36,15.19-15.57,22.02-1.2,6.82-1.79,24.59-1.69,27.81h0Z"/>
  <path class="g" d="M83.72,135.59h-7.83.01c1.36-2.49,4.59-1.55,7.82,0Z"/>
  <rect class="e" width="135.6" height="135.59"/>
</svg>