{
	"asset":{
		"generator":"Khronos glTF Blender I/O v3.6.27",
		"version":"2.0"
	},
	"scene":0,
	"scenes":[
		{
			"name":"Scene",
			"nodes":[
				0
			]
		}
	],
	"nodes":[
		{
			"mesh":0,
			"name":"jacob_highres.001",
			"translation":[
				-0.34685176610946655,
				5.568204879760742,
				-0.44941288232803345
			]
		}
	],
	"materials":[
		{
			"doubleSided":true,
			"name":"Material.001",
			"pbrMetallicRoughness":{
				"baseColorFactor":[
					0.5204000473022461,
					0.5204000473022461,
					0.5204000473022461,
					1
				],
				"metallicFactor":0,
				"roughnessFactor":0.5
			}
		},
		{
			"doubleSided":true,
			"name":"Material.002",
			"pbrMetallicRoughness":{
				"baseColorFactor":[
					0.11555717885494232,
					0.11555717885494232,
					0.11555717885494232,
					1
				],
				"metallicFactor":0,
				"roughnessFactor":0.5
			}
		}
	],
	"meshes":[
		{
			"name":"male_genericMesh.002",
			"primitives":[
				{
					"attributes":{
						"COLOR_0":0,
						"POSITION":1,
						"NORMAL":2,
						"TEXCOORD_0":3
					},
					"indices":4,
					"material":0
				},
				{
					"attributes":{
						"COLOR_0":5,
						"POSITION":6,
						"NORMAL":7,
						"TEXCOORD_0":8
					},
					"indices":9,
					"material":1
				}
			]
		}
	],
	"accessors":[
		{
			"bufferView":0,
			"componentType":5123,
			"count":13732,
			"normalized":true,
			"type":"VEC4"
		},
		{
			"bufferView":1,
			"componentType":5126,
			"count":13732,
			"max":[
				1.5849518775939941,
				3.4525699615478516,
				1.8588812351226807
			],
			"min":[
				-1.9105215072631836,
				-5.434307098388672,
				-1.820253849029541
			],
			"type":"VEC3"
		},
		{
			"bufferView":2,
			"componentType":5126,
			"count":13732,
			"type":"VEC3"
		},
		{
			"bufferView":3,
			"componentType":5126,
			"count":13732,
			"type":"VEC2"
		},
		{
			"bufferView":4,
			"componentType":5123,
			"count":80952,
			"type":"SCALAR"
		},
		{
			"bufferView":5,
			"componentType":5123,
			"count":6901,
			"normalized":true,
			"type":"VEC4"
		},
		{
			"bufferView":6,
			"componentType":5126,
			"count":6901,
			"max":[
				1.4361541271209717,
				3.433317184448242,
				1.9000513553619385
			],
			"min":[
				-2.134885549545288,
				-5.450469970703125,
				-2.116097927093506
			],
			"type":"VEC3"
		},
		{
			"bufferView":7,
			"componentType":5126,
			"count":6901,
			"type":"VEC3"
		},
		{
			"bufferView":8,
			"componentType":5126,
			"count":6901,
			"type":"VEC2"
		},
		{
			"bufferView":9,
			"componentType":5123,
			"count":39051,
			"type":"SCALAR"
		}
	],
	"bufferViews":[
		{
			"buffer":0,
			"byteLength":109856,
			"byteOffset":0,
			"target":34962
		},
		{
			"buffer":0,
			"byteLength":164784,
			"byteOffset":109856,
			"target":34962
		},
		{
			"buffer":0,
			"byteLength":164784,
			"byteOffset":274640,
			"target":34962
		},
		{
			"buffer":0,
			"byteLength":109856,
			"byteOffset":439424,
			"target":34962
		},
		{
			"buffer":0,
			"byteLength":161904,
			"byteOffset":549280,
			"target":34963
		},
		{
			"buffer":0,
			"byteLength":55208,
			"byteOffset":711184,
			"target":34962
		},
		{
			"buffer":0,
			"byteLength":82812,
			"byteOffset":766392,
			"target":34962
		},
		{
			"buffer":0,
			"byteLength":82812,
			"byteOffset":849204,
			"target":34962
		},
		{
			"buffer":0,
			"byteLength":55208,
			"byteOffset":932016,
			"target":34962
		},
		{
			"buffer":0,
			"byteLength":78102,
			"byteOffset":987224,
			"target":34963
		}
	],
	"buffers":[
		{
			"byteLength":1065328,
			"uri":"data:application/octet-stream;base64,"
		}
	]
}
