{
	"asset":{
		"generator":"Khronos glTF Blender I/O v4.0.44",
		"version":"2.0"
	},
	"scene":0,
	"scenes":[
		{
			"name":"Scene",
			"nodes":[
				0,
				1
			]
		}
	],
	"nodes":[
		{
			"mesh":0,
			"name":"jacob_highres.001",
			"scale":[
				1.0396140813827515,
				1.0396140813827515,
				1.0396140813827515
			],
			"translation":[
				-0.34636959433555603,
				5.568423271179199,
				-0.44914910197257996
			]
		},
		{
			"mesh":1,
			"name":"jacob_highres.002",
			"scale":[
				1.0938266515731812,
				1.056166172027588,
				1.056166172027588
			],
			"translation":[
				-0.371677964925766,
				5.556960105895996,
				-0.46299439668655396
			]
		}
	],
	"materials":[
		{
			"doubleSided":true,
			"name":"Material.001",
			"pbrMetallicRoughness":{
				"baseColorFactor":[
					0.5639408230781555,
					0.5639408230781555,
					0.5639408230781555,
					1
				],
				"metallicFactor":0,
				"roughnessFactor":0.5
			}
		},
		{
			"doubleSided":true,
			"name":"Material.002",
			"pbrMetallicRoughness":{
				"baseColorFactor":[
					0.11555717885494232,
					0.11555717885494232,
					0.11555717885494232,
					1
				],
				"metallicFactor":0,
				"roughnessFactor":0.5
			}
		}
	],
	"meshes":[
		{
			"name":"male_genericMesh.002",
			"primitives":[
				{
					"attributes":{
						"POSITION":0,
						"NORMAL":1
					},
					"indices":2,
					"material":0
				}
			]
		},
		{
			"name":"male_genericMesh.001",
			"primitives":[
				{
					"attributes":{
						"POSITION":3,
						"NORMAL":4
					},
					"indices":5,
					"material":1
				}
			]
		}
	],
	"accessors":[
		{
			"bufferView":0,
			"componentType":5126,
			"count":167094,
			"max":[
				1.6065254211425781,
				2.3021016120910645,
				1.8779429197311401
			],
			"min":[
				-1.4076392650604248,
				-2.3035755157470703,
				-2.0568246841430664
			],
			"type":"VEC3"
		},
		{
			"bufferView":1,
			"componentType":5126,
			"count":167094,
			"type":"VEC3"
		},
		{
			"bufferView":2,
			"componentType":5125,
			"count":256788,
			"type":"SCALAR"
		},
		{
			"bufferView":3,
			"componentType":5126,
			"count":24317,
			"max":[
				1.4095900058746338,
				2.6106865406036377,
				1.3993041515350342
			],
			"min":[
				-1.3870694637298584,
				-1.476738691329956,
				-2.114447593688965
			],
			"type":"VEC3"
		},
		{
			"bufferView":4,
			"componentType":5126,
			"count":24317,
			"type":"VEC3"
		},
		{
			"bufferView":5,
			"componentType":5123,
			"count":67440,
			"type":"SCALAR"
		}
	],
	"bufferViews":[
		{
			"buffer":0,
			"byteLength":2005128,
			"byteOffset":0,
			"target":34962
		},
		{
			"buffer":0,
			"byteLength":2005128,
			"byteOffset":2005128,
			"target":34962
		},
		{
			"buffer":0,
			"byteLength":1027152,
			"byteOffset":4010256,
			"target":34963
		},
		{
			"buffer":0,
			"byteLength":291804,
			"byteOffset":5037408,
			"target":34962
		},
		{
			"buffer":0,
			"byteLength":291804,
			"byteOffset":5329212,
			"target":34962
		},
		{
			"buffer":0,
			"byteLength":134880,
			"byteOffset":5621016,
			"target":34963
		}
	],
	"buffers":[
		{
			"byteLength":5755896,
			"uri":"jacob.bin"
		}
	]
}
